<?xml version="1.0" encoding="utf-8"?>
<!-- Generator: Adobe Illustrator 27.5.0, SVG Export Plug-In . SVG Version: 6.00 Build 0)  -->
<svg version="1.1" xmlns="http://www.w3.org/2000/svg" xmlns:xlink="http://www.w3.org/1999/xlink" x="0px" y="0px"
	 viewBox="0 0 3710 3710" style="enable-background:new 0 0 3710 3710;" xml:space="preserve">
<g id="Background">
	<g>
		<g>
			<rect style="fill:#FFFFFF;" width="3710" height="3710"/>
		</g>
	</g>
</g>
<g id="Illustration">
	<g>
		<path style="fill:#F4F7FA;" d="M2565.016,623.292c94.431,135.184-16.292,354.351,123.829,456.021
			c136.397,98.968,303.956-63.254,432.501,21.938c190.69,126.376,155.866,704.649-122.932,1063.941
			c-83.844,108.051-153.901,150.093-184.928,272.294c-66.626,262.397,167.53,418.487,122.97,548.264
			c-100.332,292.211-1643.366,537.41-2262.5-340.78C384.795,2234.818,341.53,1642.556,599.886,1192.73
			C1066.732,379.902,2353.128,319.963,2565.016,623.292z"/>
		<g>
			<g>
				<defs>
					<path id="SVGID_1_" d="M1988.789,2193.549c-234.376-106.125-330.198-418.273-250.393-524.81
						c41.509-55.412,113.353-32.269,148.433-95.607c38.865-70.175-30.115-133.272-56.543-298.4
						c-13.655-85.319-38.415-240.034,39.337-313.186c77.106-72.545,178.151,7.45,265.426-66.017
						c82.525-69.469,23.541-167.394,116.452-289.397c8.642-11.348,107.431-137.863,212.093-118.118
						c106.332,20.059,181.17,183.993,153.812,303.208c-24.855,108.309-126.758,147.875-108.221,204.42
						c20.429,62.313,150.87,34.676,178.002,96.673c39.218,89.614-204.706,212.729-178.848,362.104
						c15.205,87.837,106.365,84.641,149.493,190.424c55.663,136.526-27.845,309.476-112.257,405.034
						C2423.245,2188.362,2191.936,2285.533,1988.789,2193.549z"/>
				</defs>
				<use xlink:href="#SVGID_1_"  style="overflow:visible;fill:#D8DEE8;"/>
				<clipPath id="SVGID_00000121997356554305712200000007433067719889047424_">
					<use xlink:href="#SVGID_1_"  style="overflow:visible;"/>
				</clipPath>
				<g style="clip-path:url(#SVGID_00000121997356554305712200000007433067719889047424_);">
					<path style="fill:#FFFFFF;" d="M2122.042,2309.739l-8.146-0.374c14.47-315.435,45.81-611.922,93.155-881.229
						c37.885-215.495,86.043-414.176,143.138-590.525c97.296-300.517,188.167-433.831,189.073-435.142l6.709,4.636
						c-0.9,1.305-91.264,133.978-188.206,433.58C2268.286,1117.226,2154.755,1596.574,2122.042,2309.739z"/>
					<path style="fill:#FFFFFF;" d="M2341.877,866.752c-94.736-234.329-56.286-449.465-55.886-451.611l8.018,1.492
						c-0.396,2.124-38.378,215.031,55.43,447.062L2341.877,866.752z"/>
					<path style="fill:#FFFFFF;" d="M2199.486,1466.605c-177.5-210.491-249.864-370.893-279.313-468.389
						c-32.076-106.196-22.011-161.74-21.568-164.052l8.01,1.533c-0.106,0.553-10.102,56.468,21.628,161.032
						c29.321,96.616,101.262,255.651,277.477,464.618L2199.486,1466.605z"/>
					<path style="fill:#FFFFFF;" d="M2132.447,2041.992c-385.082-288.83-454.26-564.096-454.913-566.842l7.933-1.888
						c0.165,0.689,18.311,71.988,85.748,178.889c59.384,94.131,171.109,237.043,366.124,383.318L2132.447,2041.992z"/>
					<path style="fill:#FFFFFF;" d="M2301.37,1364.764c-26.288,10.298-53.574,19.339-81.847,26.794l-2.08-7.885
						c184.733-48.721,327.931-166.176,415.522-256.127c94.951-97.514,146.759-184.499,147.269-185.366l7.024,4.147
						c-0.518,0.875-52.823,88.701-148.45,186.909C2563.882,1210.182,2448.546,1307.109,2301.37,1364.764z"/>
					<path style="fill:#FFFFFF;" d="M2189.71,1921.235c-14.193,5.56-28.771,10.695-43.769,15.366l-2.423-7.787
						c190.175-59.217,314.427-195.239,385.183-298.922c76.723-112.43,108.774-211.979,109.09-212.972l7.775,2.465
						c-0.32,1.004-32.737,101.695-110.129,215.104C2469.524,1731.077,2357.591,1855.469,2189.71,1921.235z"/>
				</g>
			</g>
		</g>
		<g>
			<polygon style="fill:#97A6B7;" points="1908.915,990.242 1908.915,2140.228 1778.444,2105.385 1778.444,1099.444 
				1897.096,1000.138 1907.418,991.479 			"/>
			<rect x="1908.915" y="989.109" style="fill:#F4F7FA;" width="362.632" height="1151.12"/>
			<rect x="1977.987" y="1116.247" style="fill:#97A6B7;" width="46.049" height="948.385"/>
			<rect x="2073.922" y="1116.247" style="fill:#97A6B7;" width="47.967" height="948.385"/>
			<rect x="2169.856" y="1116.247" style="fill:#97A6B7;" width="47.967" height="948.385"/>
			<rect x="2008.687" y="1116.247" style="opacity:0.5;fill:#97A6B7;" width="15.349" height="948.385"/>
			<rect x="2106.539" y="1116.247" style="opacity:0.5;fill:#97A6B7;" width="15.35" height="948.385"/>
			<rect x="2204.392" y="1116.247" style="opacity:0.5;fill:#97A6B7;" width="15.349" height="948.385"/>
			<path style="opacity:0.1;fill:#97A6B7;" d="M2271.546,2140.159v0.069h-362.632l-130.471-34.844v-117.001
				c60.439-130.3,40.542-184.488,53.589-281.148c12.74-94.357-14.141-591.538,65.063-707.097c2.859-4.227,5.852-7.903,8.998-11.03
				c0.441,0.79,0.883,1.58,1.324,2.371c0.499,0.893,0.997,1.787,1.496,2.68c41.214,73.843,60.094,109.099,69.073,146.588
				c8.75,36.526,8.097,75.149,9.517,153.666c1.765,96.557,1.401,180.571,21.182,238.402c4.144,12.199,9.19,23.194,15.349,32.919
				c11.953,18.933,28.07,32.987,49.886,41.2c2.418,0.928,4.893,1.787,7.445,2.543c8.5,2.543,16.904,6.528,25.173,11.786
				c5.18,3.264,10.304,7.045,15.35,11.34c16.942,14.26,33.117,33.847,47.967,57.659c12.548,20.101,24.156,43.193,34.536,68.586
				c4.739,11.615,9.229,23.709,13.431,36.252c0.653,1.925,1.285,3.848,1.918,5.807c23.485,72.297,37.415,158.03,36.186,245.309
				C2255.391,2084.218,2261.377,2114.801,2271.546,2140.159z"/>
		</g>
		<g>
			
				<linearGradient id="SVGID_00000002347592327492110100000012301273028656914068_" gradientUnits="userSpaceOnUse" x1="1303.5695" y1="1373.2252" x2="1859.9883" y2="1373.2252">
				<stop  offset="0.494" style="stop-color:#EBEFF2"/>
				<stop  offset="1" style="stop-color:#FFFFFF"/>
			</linearGradient>
			
				<rect x="1303.569" y="522.771" style="fill:url(#SVGID_00000002347592327492110100000012301273028656914068_);" width="556.419" height="1700.908"/>
			<rect x="1345.78" y="684.271" style="fill:#97A6B7;" width="471.997" height="106.522"/>
			<rect x="1345.78" y="873.261" style="fill:#97A6B7;" width="471.997" height="106.521"/>
			<rect x="1345.78" y="1062.251" style="fill:#97A6B7;" width="471.997" height="106.521"/>
			<rect x="1345.78" y="1251.241" style="fill:#97A6B7;" width="471.997" height="106.521"/>
			<rect x="1345.78" y="1440.231" style="fill:#97A6B7;" width="471.997" height="106.521"/>
			<rect x="1345.78" y="1629.22" style="fill:#97A6B7;" width="471.997" height="106.521"/>
			<rect x="1345.78" y="1818.21" style="fill:#97A6B7;" width="471.997" height="106.521"/>
			<polygon style="fill:#97A6B7;" points="1303.569,522.771 1303.569,2223.679 1153.912,2172.137 1153.912,684.271 
				1299.233,527.444 1302.955,523.424 			"/>
			<rect x="1107.864" y="941.985" style="opacity:0.5;fill:#97A6B7;" width="92.097" height="24.053"/>
			<rect x="1107.864" y="1240.932" style="opacity:0.5;fill:#97A6B7;" width="92.097" height="24.053"/>
			<rect x="1107.864" y="1539.88" style="opacity:0.5;fill:#97A6B7;" width="92.097" height="24.053"/>
			<rect x="1107.864" y="1838.827" style="opacity:0.5;fill:#97A6B7;" width="92.097" height="24.053"/>
			<rect x="1345.78" y="684.271" style="opacity:0.5;fill:#97A6B7;" width="471.997" height="20.617"/>
			<rect x="1345.78" y="873.261" style="opacity:0.5;fill:#97A6B7;" width="471.997" height="20.617"/>
			<rect x="1345.78" y="1062.251" style="opacity:0.5;fill:#97A6B7;" width="471.997" height="20.617"/>
			<rect x="1345.78" y="1251.241" style="opacity:0.5;fill:#97A6B7;" width="471.997" height="20.617"/>
			<rect x="1345.78" y="1440.231" style="opacity:0.5;fill:#97A6B7;" width="471.997" height="20.617"/>
			<rect x="1345.78" y="1629.22" style="opacity:0.5;fill:#97A6B7;" width="471.997" height="20.617"/>
			<rect x="1345.78" y="1818.21" style="opacity:0.5;fill:#97A6B7;" width="471.997" height="20.617"/>
			<path style="opacity:0.1;fill:#97A6B7;" d="M1841.512,2223.679h-537.942l-149.657-51.542v-329.496
				c5.89-20.548,12.203-40.065,18.956-58.037c63.067-167.961,42.537-236.237,55.738-359.149
				c13.028-121.331-15.388-772.178,70.627-898.01c1.132-1.649,2.264-3.196,3.434-4.673c0.096,0.206,0.192,0.447,0.288,0.653
				c0.211,0.481,0.422,0.928,0.614,1.375c33.941,76.421,53.109,120.507,64.103,159.473c1.976,6.976,3.684,13.814,5.142,20.617
				c5.641,25.874,8.039,51.646,9.286,85.904c0.806,22.85,1.132,49.481,1.535,82.468c0.077,6.597,0.173,13.469,0.269,20.617
				c0.057,4.123,0.115,8.35,0.172,12.645c0.365,25.153,0.634,49.619,1.017,73.26c0.461,28.795,1.094,56.387,2.226,82.468
				c0.307,6.975,0.653,13.848,1.036,20.617c1.785,31.234,4.509,60.03,8.865,85.904c5.43,32.506,13.411,60.305,25.307,82.468
				c4.029,7.559,8.519,14.432,13.527,20.617c11.224,13.917,24.981,24.294,41.884,30.685c21.336,8.041,42.135,27.249,61.514,55.22
				c15.484,22.301,30.047,50.202,43.266,82.468c2.724,6.666,5.411,13.573,8.02,20.617c9.786,26.39,18.688,55.185,26.497,85.905
				c6.677,26.218,12.548,53.845,17.499,82.468c1.189,6.804,2.302,13.676,3.376,20.617c4.317,27.867,7.752,56.628,10.169,85.904
				c2.264,27.112,3.684,54.669,4.125,82.468c0.115,6.838,0.173,13.71,0.173,20.617c0,4.227-0.019,8.453-0.077,12.714
				c-0.307,27.284,1.516,51.508,5.027,73.191C1685.33,2096.747,1819.236,2110.217,1841.512,2223.679z"/>
		</g>
		<g>
			<rect x="864.075" y="939.639" style="opacity:0.5;fill:#97A6B7;" width="94.016" height="24.053"/>
			<rect x="864.075" y="1238.587" style="opacity:0.5;fill:#97A6B7;" width="94.016" height="24.053"/>
			<rect x="864.075" y="1537.534" style="opacity:0.5;fill:#97A6B7;" width="94.016" height="24.053"/>
			<g>
				<polygon style="fill:#97A6B7;" points="768.256,777.048 768.256,2223.679 618.599,2179.833 618.599,914.392 				"/>
				<rect x="768.256" y="780.484" style="fill:#F4F7FA;" width="468.159" height="1443.195"/>
				<g>
					<rect x="852.679" y="952.293" style="fill:#97A6B7;" width="92.097" height="226.788"/>
					<rect x="979.312" y="952.293" style="fill:#97A6B7;" width="94.016" height="226.788"/>
					<rect x="1107.864" y="952.293" style="fill:#97A6B7;" width="92.097" height="226.788"/>
					<rect x="852.679" y="1251.241" style="fill:#97A6B7;" width="92.097" height="226.788"/>
					<rect x="979.312" y="1251.241" style="fill:#97A6B7;" width="94.016" height="226.788"/>
					<rect x="1107.864" y="1251.241" style="fill:#97A6B7;" width="92.097" height="226.788"/>
					<rect x="852.679" y="1550.188" style="fill:#97A6B7;" width="92.097" height="226.788"/>
					<rect x="979.312" y="1550.188" style="fill:#97A6B7;" width="94.016" height="226.788"/>
					<rect x="1107.864" y="1550.188" style="fill:#97A6B7;" width="92.097" height="226.788"/>
					<rect x="852.679" y="1849.136" style="fill:#97A6B7;" width="92.097" height="226.788"/>
					<rect x="979.312" y="1849.136" style="fill:#97A6B7;" width="94.016" height="226.788"/>
					<rect x="1107.864" y="1849.136" style="fill:#97A6B7;" width="92.097" height="226.788"/>
				</g>
				<rect x="852.679" y="952.293" style="opacity:0.5;fill:#97A6B7;" width="92.097" height="24.053"/>
				<rect x="852.679" y="1251.241" style="opacity:0.5;fill:#97A6B7;" width="92.097" height="24.053"/>
				<rect x="852.679" y="1550.188" style="opacity:0.5;fill:#97A6B7;" width="92.097" height="24.053"/>
				<rect x="852.679" y="1849.136" style="opacity:0.5;fill:#97A6B7;" width="92.097" height="24.053"/>
				<path style="opacity:0.1;fill:#97A6B7;" d="M1236.416,2199.729v23.95H768.256l-149.657-43.846v-214.143
					c10.015-45.667,22.103-90.131,36.455-126.863c55.009-140.883,37.088-198.164,48.601-301.249
					c11.512-103.085-14.064-662.015,64.602-757.093c73.543,159.198,68.439,152.325,70.991,321.866
					c1.362,90.681,1.266,170.881,13.431,230.43c10.552,51.749,30.373,87.863,68.439,101.711c8.001,2.92,15.906,7.559,23.658,13.778
					c24.751,19.758,48.025,55.46,67.749,101.918c25.941,60.992,45.837,140.506,55.105,226.788
					c2.552,23.607,4.298,47.763,5.142,72.16c0.288,8.109,0.48,16.287,0.557,24.466c0.077,7.112,0.077,14.225,0,21.339
					c-0.038,2.508-0.038,4.982,0,7.422c0.365,61.645,14.563,104.151,34.536,136.76c8.461,13.813,17.958,25.84,27.898,36.802
					C1175.459,2119.7,1222.006,2146.125,1236.416,2199.729z"/>
			</g>
		</g>
		<g>
			<g>
				<defs>
					<path id="SVGID_00000057121551097216967110000015476563359123822744_" d="M1911.095,2102.948
						c-153.421-206.535-85.712-525.962,35.768-580.381c63.186-28.305,114.77,26.797,176.18-11.558
						c68.039-42.495,38.347-131.14,95.38-288.345c29.467-81.224,82.903-228.514,186.387-254.741
						c102.624-26.008,152.149,92.973,264.112,71.093c105.868-20.688,101.821-134.934,242.266-196.516
						c13.064-5.728,160.838-68.402,242.766-0.344c83.236,69.142,69.11,248.796-12.666,339.754
						c-74.296,82.637-182.595,67.776-193.829,126.212c-12.379,64.397,115.083,103.538,108.718,170.912
						c-9.2,97.386-282.222,86.651-332.108,229.804c-29.334,84.179,51.922,125.626,38.292,239.046
						c-17.59,146.386-174.538,257.075-294.718,299.659C2293.476,2309.259,2044.074,2281.963,1911.095,2102.948z"/>
				</defs>
				
					<linearGradient id="SVGID_00000067197127092340603950000014648145030616688780_" gradientUnits="userSpaceOnUse" x1="2618.377" y1="1543.5193" x2="5291.7227" y2="1571.0088">
					<stop  offset="0" style="stop-color:#FFC444"/>
					<stop  offset="0.9964" style="stop-color:#F36F56"/>
				</linearGradient>
				
					<use xlink:href="#SVGID_00000057121551097216967110000015476563359123822744_"  style="overflow:visible;fill:url(#SVGID_00000067197127092340603950000014648145030616688780_);"/>
				<clipPath id="SVGID_00000065795796962014281570000015495695246067734661_">
					<use xlink:href="#SVGID_00000057121551097216967110000015476563359123822744_"  style="overflow:visible;"/>
				</clipPath>
				<g style="clip-path:url(#SVGID_00000065795796962014281570000015495695246067734661_);">
					<path style="fill:#FFFFFF;" d="M1971.216,2269.207l-6.941-4.281c165.735-268.775,337.026-512.796,509.12-725.286
						c137.707-170.029,276.236-320.373,411.74-446.853c230.915-215.536,375.066-287.996,376.495-288.704l3.615,7.31
						c-1.42,0.704-144.817,72.851-374.978,287.759C2677.824,1297.518,2345.925,1661.533,1971.216,2269.207z"/>
					<path style="fill:#FFFFFF;" d="M2863.726,1114.232c30.891-250.859,168.918-420.301,170.309-421.984l6.286,5.195
						c-1.378,1.664-137.912,169.385-168.5,417.785L2863.726,1114.232z"/>
					<path style="fill:#FFFFFF;" d="M2448.111,1569.604c-53.042-270.183-38.468-445.549-16.9-545.086
						c23.493-108.418,59.249-152.098,60.759-153.905l6.26,5.228c-0.361,0.432-36.237,44.47-59.24,151.293
						c-21.252,98.706-35.533,272.67,17.125,540.898L2448.111,1569.604z"/>
					<path style="fill:#FFFFFF;" d="M2110.254,2040.154c-196.519-439.421-123.415-713.67-122.654-716.388l7.853,2.199
						c-0.191,0.683-18.927,71.828-11.844,198.024c6.239,111.123,34.567,290.298,134.088,512.835L2110.254,2040.154z"/>
					<path style="fill:#FFFFFF;" d="M2586.617,1530.006c-27.981-3.754-56.228-9.091-84.566-16.293l2.008-7.904
						c185.165,47.055,367.371,13.855,487.609-22.285c130.345-39.179,217.857-90.091,218.724-90.601l4.13,7.035
						c-0.878,0.514-89.233,51.92-220.504,91.378C2891.163,1522.249,2743.281,1551.022,2586.617,1530.006z"/>
					<path style="fill:#FFFFFF;" d="M2218.927,1962.362c-15.108-2.027-30.347-4.611-45.726-7.807l1.66-7.984
						c195.017,40.519,369.669-18.11,481.852-74.427c121.646-61.067,197.982-132.553,198.74-133.267l5.601,5.929
						c-0.766,0.723-77.976,73.028-200.682,134.627C2555.865,1931.896,2397.629,1986.334,2218.927,1962.362z"/>
				</g>
			</g>
		</g>
		<g>
			
				<linearGradient id="SVGID_00000142866053536104015080000017445117342154486972_" gradientUnits="userSpaceOnUse" x1="1562.043" y1="2127.2271" x2="1587.1935" y2="2201.585" gradientTransform="matrix(0.9995 0.0305 -0.0305 0.9995 88.8659 -21.9098)">
				<stop  offset="0" style="stop-color:#444B8C"/>
				<stop  offset="0.9964" style="stop-color:#3E4177"/>
			</linearGradient>
			<path style="fill:url(#SVGID_00000142866053536104015080000017445117342154486972_);" d="M1572.766,2702.47l171.418-35.745
				l114.139-209.81l-157.156-70.168c0,0-171.984,112.862-168.824,116.876C1535.502,2507.636,1572.766,2702.47,1572.766,2702.47z"/>
			
				<linearGradient id="SVGID_00000010292010038493006170000015964947313195444887_" gradientUnits="userSpaceOnUse" x1="803.5918" y1="2383.8091" x2="828.7415" y2="2458.1646" gradientTransform="matrix(0.9995 0.0305 -0.0305 0.9995 88.8659 -21.9098)">
				<stop  offset="0" style="stop-color:#444B8C"/>
				<stop  offset="0.9964" style="stop-color:#3E4177"/>
			</linearGradient>
			<polygon style="fill:url(#SVGID_00000010292010038493006170000015964947313195444887_);" points="761.653,2554.563 
				986.507,2537.817 924.491,2311.229 766.365,2333.238 711.821,2451.366 			"/>
			<g>
				
					<linearGradient id="SVGID_00000114771320672018110170000004268492147811104175_" gradientUnits="userSpaceOnUse" x1="1975.8514" y1="2467.7773" x2="1800.897" y2="2621.9558" gradientTransform="matrix(0.9995 0.0305 -0.0305 0.9995 88.8659 -21.9098)">
					<stop  offset="0" style="stop-color:#444B8C"/>
					<stop  offset="0.9964" style="stop-color:#3E4177"/>
				</linearGradient>
				<path style="fill:url(#SVGID_00000114771320672018110170000004268492147811104175_);" d="M1908.112,2654.427
					c-2.77,90.927-48.26,163.32-101.605,161.694c-53.346-1.625-94.344-76.653-91.574-167.579
					c2.77-90.927,48.26-163.32,101.605-161.694C1869.883,2488.472,1910.882,2563.5,1908.112,2654.427z"/>
				
					<linearGradient id="SVGID_00000052086975923874107920000018122759099997444798_" gradientUnits="userSpaceOnUse" x1="1954.2394" y1="2443.2593" x2="1779.2858" y2="2597.437" gradientTransform="matrix(0.9995 0.0305 -0.0305 0.9995 88.8659 -21.9098)">
					<stop  offset="0" style="stop-color:#444B8C"/>
					<stop  offset="0.9964" style="stop-color:#3E4177"/>
				</linearGradient>
				<polygon style="fill:url(#SVGID_00000052086975923874107920000018122759099997444798_);" points="1695.768,2820.894 
					1816.899,2816.585 1816.538,2486.847 1696.839,2492.056 				"/>
				
					<linearGradient id="SVGID_00000183215293545957079750000015735052239948286117_" gradientUnits="userSpaceOnUse" x1="1689.2581" y1="2523.4663" x2="1667.256" y2="2960.7551" gradientTransform="matrix(0.9995 0.0305 -0.0305 0.9995 88.8659 -21.9098)">
					<stop  offset="0" style="stop-color:#444B8C"/>
					<stop  offset="0.9964" style="stop-color:#3E4177"/>
				</linearGradient>
				<path style="fill:url(#SVGID_00000183215293545957079750000015735052239948286117_);" d="M1788.413,2659.636
					c-2.77,90.927-48.26,163.319-101.606,161.694c-53.345-1.625-94.344-76.653-91.574-167.579
					c2.77-90.927,48.26-163.32,101.605-161.695C1750.184,2493.682,1791.183,2568.709,1788.413,2659.636z"/>
				
					<linearGradient id="SVGID_00000049203697160279636300000003662567452203336374_" gradientUnits="userSpaceOnUse" x1="1640.3932" y1="2628.5564" x2="1727.5479" y2="2628.5564" gradientTransform="matrix(0.9995 0.0305 -0.0305 0.9995 88.8659 -21.9098)">
					<stop  offset="0" style="stop-color:#444B8C"/>
					<stop  offset="0.9964" style="stop-color:#3E4177"/>
				</linearGradient>
				<path style="opacity:0.6;fill:url(#SVGID_00000049203697160279636300000003662567452203336374_);" d="M1735.379,2658.021
					c-1.249,41.001-21.762,73.646-45.818,72.913c-24.055-0.733-42.543-34.565-41.294-75.567
					c1.249-41.002,21.762-73.646,45.817-72.914C1718.14,2583.186,1736.628,2617.018,1735.379,2658.021z"/>
			</g>
			<g>
				
					<linearGradient id="SVGID_00000115516794968886533880000012244390890948784776_" gradientUnits="userSpaceOnUse" x1="1074.6235" y1="2368.9539" x2="931.442" y2="2495.1326" gradientTransform="matrix(0.9995 0.0305 -0.0305 0.9995 88.8659 -21.9098)">
					<stop  offset="0" style="stop-color:#444B8C"/>
					<stop  offset="0.9964" style="stop-color:#3E4177"/>
				</linearGradient>
				<path style="fill:url(#SVGID_00000115516794968886533880000012244390890948784776_);" d="M1024.941,2501.01
					c-2.267,74.414-39.496,133.66-83.153,132.33s-77.211-62.732-74.944-137.146c2.267-74.414,39.496-133.66,83.153-132.33
					C993.654,2365.193,1027.208,2426.596,1024.941,2501.01z"/>
				
					<linearGradient id="SVGID_00000095317471052774980880000002694006408499349395_" gradientUnits="userSpaceOnUse" x1="1056.9365" y1="2348.8882" x2="913.7552" y2="2475.0667" gradientTransform="matrix(0.9995 0.0305 -0.0305 0.9995 88.8659 -21.9098)">
					<stop  offset="0" style="stop-color:#444B8C"/>
					<stop  offset="0.9964" style="stop-color:#3E4177"/>
				</linearGradient>
				<polygon style="fill:url(#SVGID_00000095317471052774980880000002694006408499349395_);" points="851.16,2637.246 
					950.292,2633.719 949.997,2363.864 852.036,2368.127 				"/>
				
					<linearGradient id="SVGID_00000114752689158124077020000006656907140986878336_" gradientUnits="userSpaceOnUse" x1="840.0772" y1="2414.5293" x2="822.0708" y2="2772.4041" gradientTransform="matrix(0.9995 0.0305 -0.0305 0.9995 88.8659 -21.9098)">
					<stop  offset="0" style="stop-color:#444B8C"/>
					<stop  offset="0.9964" style="stop-color:#3E4177"/>
				</linearGradient>
				<path style="fill:url(#SVGID_00000114752689158124077020000006656907140986878336_);" d="M926.98,2505.273
					c-2.267,74.414-39.496,133.659-83.153,132.33c-43.657-1.33-77.211-62.732-74.944-137.146
					c2.267-74.414,39.496-133.66,83.153-132.33C895.694,2369.457,929.247,2430.859,926.98,2505.273z"/>
				
					<linearGradient id="SVGID_00000047022147509313892870000003915380245393724599_" gradientUnits="userSpaceOnUse" x1="800.0865" y1="2500.5344" x2="871.4131" y2="2500.5344" gradientTransform="matrix(0.9995 0.0305 -0.0305 0.9995 88.8659 -21.9098)">
					<stop  offset="0" style="stop-color:#444B8C"/>
					<stop  offset="0.9964" style="stop-color:#3E4177"/>
				</linearGradient>
				<path style="opacity:0.6;fill:url(#SVGID_00000047022147509313892870000003915380245393724599_);" d="M883.577,2503.951
					c-1.022,33.555-17.81,60.271-37.496,59.672c-19.687-0.6-34.817-28.288-33.795-61.844c1.022-33.556,17.81-60.272,37.497-59.672
					C869.469,2442.707,884.599,2470.395,883.577,2503.951z"/>
			</g>
			
				<linearGradient id="SVGID_00000127733980551297557890000003871808315097585595_" gradientUnits="userSpaceOnUse" x1="3053.7747" y1="1922.6881" x2="2830.9348" y2="2398.0806" gradientTransform="matrix(0.9995 0.0305 -0.0305 0.9995 88.8659 -21.9098)">
				<stop  offset="0" style="stop-color:#AA80F9"/>
				<stop  offset="0.9964" style="stop-color:#6165D7"/>
			</linearGradient>
			<path style="fill:url(#SVGID_00000127733980551297557890000003871808315097585595_);" d="M3052.895,1874.258l13.333,264.059
				l6.913,4.337c13.508,8.474,31.113-0.917,31.598-16.855l6.021-197.646c0.724-23.768-10.164-46.401-29.187-60.669l-6.615-4.961
				C3065.602,1855.504,3052.305,1862.577,3052.895,1874.258z"/>
			
				<linearGradient id="SVGID_00000116924600580623424960000017066207364833057413_" gradientUnits="userSpaceOnUse" x1="3101.2251" y1="1944.928" x2="2878.3806" y2="2420.3303" gradientTransform="matrix(0.9995 0.0305 -0.0305 0.9995 88.8659 -21.9098)">
				<stop  offset="0" style="stop-color:#AA80F9"/>
				<stop  offset="0.9964" style="stop-color:#6165D7"/>
			</linearGradient>
			<path style="fill:url(#SVGID_00000116924600580623424960000017066207364833057413_);" d="M3025.859,2261.193l61.703-122.12
				c0.884-1.749,1.189-3.734,0.871-5.668l-2.617-15.897c-1.393-8.468-12.571-10.628-17.02-3.29l-57.82,95.37L3025.859,2261.193z"/>
			
				<linearGradient id="SVGID_00000091017325343317088800000016583281473335696808_" gradientUnits="userSpaceOnUse" x1="2260.9243" y1="2096.4473" x2="2989.2026" y2="1842.7527" gradientTransform="matrix(0.9995 0.0305 -0.0305 0.9995 88.8659 -21.9098)">
				<stop  offset="0" style="stop-color:#AA80F9"/>
				<stop  offset="0.9964" style="stop-color:#6165D7"/>
			</linearGradient>
			<path style="fill:url(#SVGID_00000091017325343317088800000016583281473335696808_);" d="M1363.379,1693.101l67.241-86.626
				c25.655-33.051,60.98-57.235,101.061-69.237c139.388-41.738,485.632-134.47,769.599-120.606
				c364.707,17.807,579.474,104.097,643.313,204.007s176.323,709.685,85.19,1119.187c0,0-333.235,158.194-619.147,112.433
				L1363.379,1693.101z"/>
			
				<linearGradient id="SVGID_00000176042544548554891420000010067516745665210018_" gradientUnits="userSpaceOnUse" x1="2281.0867" y1="1947.854" x2="3048.2126" y2="1947.854" gradientTransform="matrix(0.9995 0.0305 -0.0305 0.9995 88.8659 -21.9098)">
				<stop  offset="0" style="stop-color:#444B8C"/>
				<stop  offset="0.9964" style="stop-color:#3E4177"/>
			</linearGradient>
			<path style="fill:url(#SVGID_00000176042544548554891420000010067516745665210018_);" d="M2323.117,1545.095l80.773,866.539
				c0,0,25.137,53.617,83.429,52.785c46.399-0.663,403.182,4.937,575.846-21.138c9.896-359.979-68.993-745.052-118.573-822.642
				c-5.84-9.142-12.962-18.169-21.333-27.043C2760.569,1555.657,2527.288,1517.412,2323.117,1545.095z"/>
			<path style="opacity:0.3;fill:#FFFFFF;" d="M2944.593,1620.639c-5.84-9.142-12.962-18.169-21.333-27.043
				c-112.073-26.135-257.64-52.408-404.116-57.182c-39.983,72.519-43.184,127.313-32.403,168.852
				c31.905,122.919,189.749,143.529,284.606,325.147c54.683,104.701,3.98,159.491,58.354,262.667
				c39.245,74.474,99.661,124.813,156.553,158.956c28.082-2.425,54.111-5.311,76.911-8.754
				C3073.062,2083.302,2994.172,1698.229,2944.593,1620.639z"/>
			<g>
				
					<linearGradient id="SVGID_00000114036652430523983630000018389269208533246862_" gradientUnits="userSpaceOnUse" x1="2998.5564" y1="2491.4243" x2="3033.5488" y2="2649.9836" gradientTransform="matrix(0.9995 0.0305 -0.0305 0.9995 88.8659 -21.9098)">
					<stop  offset="0" style="stop-color:#FF9085"/>
					<stop  offset="1" style="stop-color:#FB6FBB"/>
				</linearGradient>
				<path style="fill:url(#SVGID_00000114036652430523983630000018389269208533246862_);" d="M3006.349,2573.585
					c-8.266,1.79-14.247,8.979-14.505,17.432l-2.969,97.456c-0.357,11.722,10.193,20.787,21.728,18.665l26.877-4.944
					c8.404-44.739,14.579-91.503,18.856-139.428L3006.349,2573.585z"/>
			</g>
			
				<linearGradient id="SVGID_00000067940267981133652780000007436332936116515985_" gradientUnits="userSpaceOnUse" x1="2710.4131" y1="2690.6597" x2="2881.5256" y2="2690.6597" gradientTransform="matrix(0.9995 0.0305 -0.0305 0.9995 88.8659 -21.9098)">
				<stop  offset="0" style="stop-color:#444B8C"/>
				<stop  offset="0.9964" style="stop-color:#3E4177"/>
			</linearGradient>
			<path style="fill:url(#SVGID_00000067940267981133652780000007436332936116515985_);" d="M2716.549,2727.435l-1.857,60.984
				c-0.251,8.241,7.177,14.605,15.281,13.092l146.169-27.287c5.969-1.115,10.356-6.236,10.541-12.305l1.37-44.979
				c0.234-7.68-6.248-13.865-13.909-13.272l-145.681,11.282C2721.887,2715.459,2716.75,2720.842,2716.549,2727.435z"/>
			
				<linearGradient id="SVGID_00000010294925390712379480000009941905686258965922_" gradientUnits="userSpaceOnUse" x1="2937.5396" y1="2649.8982" x2="2681.7039" y2="2707.5386" gradientTransform="matrix(0.9995 0.0305 -0.0305 0.9995 88.8659 -21.9098)">
				<stop  offset="0" style="stop-color:#AA80F9"/>
				<stop  offset="0.9964" style="stop-color:#6165D7"/>
			</linearGradient>
			<path style="fill:url(#SVGID_00000010294925390712379480000009941905686258965922_);" d="M2716.497,2729.158l-1.717,56.345
				c-0.232,7.614,6.631,13.493,14.119,12.095l135.05-25.211c5.515-1.03,9.568-5.761,9.739-11.369l1.266-41.558
				c0.216-7.096-5.773-12.811-12.851-12.263l-134.599,10.425C2721.428,2718.093,2716.683,2723.066,2716.497,2729.158z"/>
			
				<linearGradient id="SVGID_00000007388506380950379880000006486153270061595527_" gradientUnits="userSpaceOnUse" x1="2086.4695" y1="1761.5631" x2="313.6792" y2="3451.8997" gradientTransform="matrix(0.9995 0.0305 -0.0305 0.9995 88.8659 -21.9098)">
				<stop  offset="0.0036" style="stop-color:#E38DDD"/>
				<stop  offset="1" style="stop-color:#9571F6"/>
			</linearGradient>
			<path style="fill:url(#SVGID_00000007388506380950379880000006486153270061595527_);" d="M757.52,2500.111
				c2.593-85.111,45.174-152.872,95.107-151.351c49.932,1.521,88.31,71.749,85.717,156.86c-0.877,28.798-6.344,55.594-15.115,78.408
				l649.539,118.443c-1.066-13.311-1.45-27.004-1.023-40.999c3.696-121.327,64.399-217.925,135.579-215.756
				c71.18,2.169,125.887,102.282,122.192,223.609c-0.84,27.571-4.65,53.841-10.834,77.99l613.511,108.334
				c0,0,21.894-1116.104-130.299-1354.575c-16.916-26.508-47.888-40.508-79.064-36.375
				c-157.622,20.902-823.612,118.248-1606.781,363.261c-26.922,8.423-46.685,31.509-50.741,59.423
				c-15.598,107.382-49.059,381.605-17.237,576.855c5.179,31.78,29.854,56.823,61.532,62.601l152.052,27.726
				C758.437,2537.565,756.938,2519.219,757.52,2500.111z"/>
			<g>
				
					<linearGradient id="SVGID_00000099642187113539738860000018268300128158408609_" gradientUnits="userSpaceOnUse" x1="1303.809" y1="1785.3213" x2="1852.8379" y2="1785.3213" gradientTransform="matrix(0.9995 0.0305 -0.0305 0.9995 88.8659 -21.9098)">
					<stop  offset="0" style="stop-color:#444B8C"/>
					<stop  offset="0.9964" style="stop-color:#3E4177"/>
				</linearGradient>
				<path style="fill:url(#SVGID_00000099642187113539738860000018268300128158408609_);" d="M1875.71,1611.812
					c-0.275-17.581-16.707-30.423-33.834-26.441l-477.063,110.881c-14.411,3.35-24.695,16.074-24.946,30.867l-4.464,262.94
					c-0.449,26.485,21.508,47.876,47.973,46.734l460.516-19.877c21.248-0.917,37.9-18.581,37.568-39.845L1875.71,1611.812z"/>
				
					<linearGradient id="SVGID_00000042713586680247226790000009472478259172271803_" gradientUnits="userSpaceOnUse" x1="552.1768" y1="1924.0028" x2="1007.1879" y2="1924.0028" gradientTransform="matrix(0.9995 0.0305 -0.0305 0.9995 88.8659 -21.9098)">
					<stop  offset="0" style="stop-color:#444B8C"/>
					<stop  offset="0.9964" style="stop-color:#3E4177"/>
				</linearGradient>
				<path style="fill:url(#SVGID_00000042713586680247226790000009472478259172271803_);" d="M998.619,1781.366l-365.218,84.887
					c-22.127,5.143-38.678,23.572-41.422,46.123l-12.715,104.489c-3.501,28.761,19.646,53.788,48.593,52.539l376.195-16.238
					c17.073-0.737,30.424-14.987,30.049-32.071l-4.734-215.853C1029.018,1789.328,1014.123,1777.762,998.619,1781.366z"/>
			</g>
			
				<linearGradient id="SVGID_00000072272161136736654570000010319046929929306779_" gradientUnits="userSpaceOnUse" x1="1015.8461" y1="2100.1406" x2="1294.2539" y2="2100.1406" gradientTransform="matrix(0.9995 0.0305 -0.0305 0.9995 88.8659 -21.9098)">
				<stop  offset="0" style="stop-color:#444B8C"/>
				<stop  offset="0.9964" style="stop-color:#3E4177"/>
			</linearGradient>
			<path style="fill:url(#SVGID_00000072272161136736654570000010319046929929306779_);" d="M1312.297,1740.661
				c0.114-16.363-15.206-28.457-31.094-24.547l-212.318,52.255c-11.412,2.81-19.345,13.162-19.091,24.913l14.666,678.021
				c0.275,12.646,9.915,23.112,22.496,24.42l192.342,20.013c14.738,1.532,27.588-9.969,27.693-24.785L1312.297,1740.661z"/>
			<g>
				
					<linearGradient id="SVGID_00000115515045803852276020000011220625535174699446_" gradientUnits="userSpaceOnUse" x1="1910.5365" y1="2433.0732" x2="2293.8435" y2="2433.0732" gradientTransform="matrix(0.9995 0.0305 -0.0305 0.9995 88.8659 -21.9098)">
					<stop  offset="0" style="stop-color:#444B8C"/>
					<stop  offset="0.9964" style="stop-color:#3E4177"/>
				</linearGradient>
				<path style="fill:url(#SVGID_00000115515045803852276020000011220625535174699446_);" d="M2301.374,2671.766l-5.347-140.4
					l-364.234-310.695l18.91,395.449c1.923,40.182,32.185,73.301,72.031,78.828l219.379,30.44
					C2274.247,2729.848,2302.607,2704.187,2301.374,2671.766z"/>
				
					<linearGradient id="SVGID_00000180358886233715801560000012177645040302406035_" gradientUnits="userSpaceOnUse" x1="1862.5571" y1="1911.3145" x2="2274.9758" y2="1911.3145" gradientTransform="matrix(0.9995 0.0305 -0.0305 0.9995 88.8659 -21.9098)">
					<stop  offset="0" style="stop-color:#444B8C"/>
					<stop  offset="0.9964" style="stop-color:#3E4177"/>
				</linearGradient>
				<path style="fill:url(#SVGID_00000180358886233715801560000012177645040302406035_);" d="M2259.095,1561.305
					c-1.146-30.113-28.872-52.112-58.459-46.384l-263.789,51.078c-20.682,4.004-35.283,22.591-34.277,43.631l22.809,476.915
					l365.587,311.85L2259.095,1561.305z"/>
			</g>
			
				<linearGradient id="SVGID_00000175303962610534306390000011767916169453057471_" gradientUnits="userSpaceOnUse" x1="2154.2087" y1="1896.4323" x2="2433.052" y2="2470.5217" gradientTransform="matrix(0.9995 0.0305 -0.0305 0.9995 88.8659 -21.9098)">
				<stop  offset="0" style="stop-color:#AA80F9"/>
				<stop  offset="0.9964" style="stop-color:#6165D7"/>
			</linearGradient>
			<path style="fill:url(#SVGID_00000175303962610534306390000011767916169453057471_);" d="M2164.197,1879.718l18.205,258.798
				c0.943,13.406,10.858,23.572,22.633,23.205l51.555-1.605l-10.327-283.691c-0.576-15.827-11.725-28.377-25.584-28.8l-29.114-0.887
				C2175.716,1846.254,2162.927,1861.667,2164.197,1879.718z"/>
			
				<linearGradient id="SVGID_00000026846410203635154080000004043186961606382770_" gradientUnits="userSpaceOnUse" x1="2187.1584" y1="2110.3125" x2="2311.8582" y2="2110.3125" gradientTransform="matrix(0.9995 0.0305 -0.0305 0.9995 88.8659 -21.9098)">
				<stop  offset="0" style="stop-color:#AA80F9"/>
				<stop  offset="0.9964" style="stop-color:#6165D7"/>
			</linearGradient>
			<path style="fill:url(#SVGID_00000026846410203635154080000004043186961606382770_);" d="M2334.229,2189.726l-0.865,28.415
				c-0.216,7.105-8.707,10.638-13.9,5.785l-89.048-83.226c-10.906-9.135-17.87-22.383-18.252-36.604
				c-0.202-7.528,1.388-14.707,6.997-18.398l100.297,73.705C2329.07,2166.466,2334.593,2177.804,2334.229,2189.726z"/>
			
				<linearGradient id="SVGID_00000008139279901902959370000004033213117628502918_" gradientUnits="userSpaceOnUse" x1="2487.6416" y1="2625.0972" x2="2391.9299" y2="2676.0837" gradientTransform="matrix(0.9995 0.0305 -0.0305 0.9995 88.8659 -21.9098)">
				<stop  offset="0" style="stop-color:#FF9085"/>
				<stop  offset="1" style="stop-color:#FB6FBB"/>
			</linearGradient>
			<path style="fill:url(#SVGID_00000008139279901902959370000004033213117628502918_);" d="M2392.74,2626.687
				c0.037-5.82,6.083-10.206,12.782-9.273l29.837,4.152c2.768,0.385,5.568,0.564,8.367,0.536l43.314-1.742
				c13.789-0.554,25.074,9.503,23.912,21.313l-13.051,132.684c-0.808,8.218-7.819,14.951-17.231,16.549l-20.235,3.435
				c-13.096,2.223-26.69,1.219-39.219-2.898l0,0c-17.694-5.813-29.386-20.457-29.284-36.675L2392.74,2626.687z"/>
			<g style="opacity:0.3;">
				
					<linearGradient id="SVGID_00000043449999768490399060000007418082065724661664_" gradientUnits="userSpaceOnUse" x1="388.374" y1="1877.1718" x2="2517.9253" y2="3254.1497" gradientTransform="matrix(0.9995 0.0305 -0.0305 0.9995 88.8659 -21.9098)">
					<stop  offset="0" style="stop-color:#AA80F9"/>
					<stop  offset="0.9964" style="stop-color:#6165D7"/>
				</linearGradient>
				<path style="fill:url(#SVGID_00000043449999768490399060000007418082065724661664_);" d="M2011.299,2435.556
					c-214.888-95.286-391.945,71.844-586.939-52.888c-182.945-117.026-119.005-322.935-306.754-416.299
					c-147.966-73.581-246.176,25.223-428.037-26.167c-45.215-12.776-86.305-32.243-123.639-56.25
					c-0.221,1.139-0.454,2.274-0.624,3.431c-15.598,107.381-49.06,381.605-17.237,576.854c5.179,31.78,29.853,56.823,61.532,62.601
					l152.052,27.726c-3.216-16.998-4.714-35.344-4.132-54.452c2.593-85.111,45.174-152.873,95.106-151.352
					c49.932,1.521,88.31,71.75,85.717,156.86c-0.877,28.797-6.344,55.594-15.115,78.407l649.539,118.443
					c-1.066-13.311-1.45-27.004-1.023-40.999c3.696-121.326,64.399-217.924,135.579-215.756s125.887,102.282,122.191,223.609
					c-0.84,27.57-4.65,53.841-10.834,77.99l482.875,85.266C2221.65,2577.371,2106.78,2477.894,2011.299,2435.556z"/>
			</g>
		</g>
		<g>
			
				<linearGradient id="SVGID_00000169553158301946753520000009113165684298605957_" gradientUnits="userSpaceOnUse" x1="6006.8604" y1="2968.5591" x2="6050.5635" y2="2925.4714" gradientTransform="matrix(-1 0 0 1 6905.2178 0)">
				<stop  offset="0" style="stop-color:#FCB148"/>
				<stop  offset="0.0521" style="stop-color:#FDBA46"/>
				<stop  offset="0.1424" style="stop-color:#FFC244"/>
				<stop  offset="0.3183" style="stop-color:#FFC444"/>
				<stop  offset="0.4849" style="stop-color:#FDB946"/>
				<stop  offset="0.7754" style="stop-color:#F99C4D"/>
				<stop  offset="0.8658" style="stop-color:#F8924F"/>
				<stop  offset="1" style="stop-color:#F8924F"/>
			</linearGradient>
			<path style="fill:url(#SVGID_00000169553158301946753520000009113165684298605957_);" d="M815.101,2975.459h33.235
				l41.166-104.615C889.502,2870.844,813.968,2876.132,815.101,2975.459z"/>
			
				<linearGradient id="SVGID_00000080170007657941795000000000549616392182404234_" gradientUnits="userSpaceOnUse" x1="5226.3843" y1="3260.1667" x2="5418.8848" y2="3070.3774" gradientTransform="matrix(-1 0 0 1 6905.2178 0)">
				<stop  offset="0" style="stop-color:#FCB148"/>
				<stop  offset="0.0521" style="stop-color:#FDBA46"/>
				<stop  offset="0.1424" style="stop-color:#FFC244"/>
				<stop  offset="0.3183" style="stop-color:#FFC444"/>
				<stop  offset="0.4849" style="stop-color:#FDB946"/>
				<stop  offset="0.7754" style="stop-color:#F99C4D"/>
				<stop  offset="0.8658" style="stop-color:#F8924F"/>
				<stop  offset="1" style="stop-color:#F8924F"/>
			</linearGradient>
			<path style="fill:url(#SVGID_00000080170007657941795000000000549616392182404234_);" d="M1590.786,3156.385l-216.297-40.085
				c0,0-19.633-166.963,77.051-182.824C1548.223,2917.613,1600.114,3046.943,1590.786,3156.385z"/>
			<g>
				
					<linearGradient id="SVGID_00000142154784643520632910000004170833190925208202_" gradientUnits="userSpaceOnUse" x1="5254.9888" y1="3089.0017" x2="5444.5708" y2="3089.0017" gradientTransform="matrix(-1 0 0 1 6905.2178 0)">
					<stop  offset="0" style="stop-color:#444B8C"/>
					<stop  offset="0.9964" style="stop-color:#3E4177"/>
				</linearGradient>
				<path style="fill:url(#SVGID_00000142154784643520632910000004170833190925208202_);" d="M1580.136,2959.98
					c0.025,0.003,0.049,0.005,0.074,0.007c6.745,0.678,12.938,3.316,19.092,7.103c5.917,3.001,13.058,6.537,13.058,11.052v0.101
					c22.787,23.696,37.78,67.488,37.869,116.518c0.118,65.3-26.453,118.083-61.496,124.173c0,0.003,0.072,0.039,0.072,0.039
					c-2.364,0.341-31.724,10.972-124.258,0.497c-2.453-39.741-3.9-264.743-3.9-264.743S1534.605,2950.903,1580.136,2959.98z"/>
				<g>
					
						<linearGradient id="SVGID_00000161595540001848592170000007627218071832206223_" gradientUnits="userSpaceOnUse" x1="5552.5898" y1="2856.4785" x2="5359.562" y2="3234.9006" gradientTransform="matrix(-1 0 0 1 6905.2178 0)">
						<stop  offset="0" style="stop-color:#EBEFF2"/>
						<stop  offset="0.9946" style="stop-color:#B7C0CE"/>
					</linearGradient>
					<path style="fill:url(#SVGID_00000161595540001848592170000007627218071832206223_);" d="M1395.395,3082.223
						c0,74.694,34.579,136.59,76.486,138.148c41.103,1.529,73.787-55.776,73.71-127.902
						c-0.077-72.052-32.827-133.649-73.854-137.718C1429.908,2950.603,1395.395,3007.609,1395.395,3082.223z"/>
					<path style="fill:#FFFFFF;" d="M1428.18,3083.936c0.012,53,23.058,97.059,51.138,98.356
						c27.717,1.28,49.883-39.688,49.834-91.455c-0.049-51.729-22.267-95.642-49.947-98.147
						C1451.162,2990.153,1428.168,3030.975,1428.18,3083.936z"/>
				</g>
			</g>
			<g>
				
					<linearGradient id="SVGID_00000002350253179049790810000006860573949375255473_" gradientUnits="userSpaceOnUse" x1="5876.0068" y1="2991.5874" x2="6031.1772" y2="2991.5874" gradientTransform="matrix(-1 0 0 1 6905.2178 0)">
					<stop  offset="0" style="stop-color:#444B8C"/>
					<stop  offset="0.9964" style="stop-color:#3E4177"/>
				</linearGradient>
				<path style="fill:url(#SVGID_00000002350253179049790810000006860573949375255473_);" d="M970.883,2880.452
					c0.02,0.002,0.04,0.005,0.06,0.007c5.472,0.584,11.961,2.856,16.953,6.118c4.8,2.585,3.513,5.631,12.058,9.52v0.086
					c14.242,20.411,29.184,58.132,29.256,100.366c0.095,56.248-22.192,101.713-50.621,106.96c0,0.002-0.308,0.034-0.308,0.034
					c-1.918,0.293-25.919,9.45-100.986,0.428c-1.99-34.232-3.255-228.043-3.255-228.043S933.947,2872.632,970.883,2880.452z"/>
				<g>
					
						<linearGradient id="SVGID_00000139280257453306720840000000201480664014988219_" gradientUnits="userSpaceOnUse" x1="6124.3125" y1="2792.2642" x2="5958.8506" y2="3116.644" gradientTransform="matrix(-1 0 0 1 6905.2178 0)">
						<stop  offset="0" style="stop-color:#EBEFF2"/>
						<stop  offset="0.9946" style="stop-color:#B7C0CE"/>
					</linearGradient>
					<path style="fill:url(#SVGID_00000139280257453306720840000000201480664014988219_);" d="M821.013,2985.749
						c0,64.339,28.052,117.655,62.049,118.998c33.345,1.317,59.859-48.044,59.796-110.171
						c-0.062-62.064-26.63-115.123-59.913-118.628C849.012,2872.374,821.013,2921.478,821.013,2985.749z"/>
					<path style="fill:#FFFFFF;" d="M847.611,2987.224c0.01,45.653,18.706,83.604,41.485,84.721
						c22.485,1.102,40.467-34.187,40.427-78.777c-0.039-44.558-18.064-82.383-40.519-84.541
						C866.255,2906.441,847.601,2941.605,847.611,2987.224z"/>
				</g>
			</g>
			<g>
				
					<linearGradient id="SVGID_00000132081368419265859790000009667768023859642241_" gradientUnits="userSpaceOnUse" x1="4420.4775" y1="3064.9551" x2="4651.4297" y2="3064.9551" gradientTransform="matrix(-1 0 0 1 6905.2178 0)">
					<stop  offset="0" style="stop-color:#444B8C"/>
					<stop  offset="0.9964" style="stop-color:#3E4177"/>
				</linearGradient>
				<path style="fill:url(#SVGID_00000132081368419265859790000009667768023859642241_);" d="M2397.969,2907.445
					c0.031,0,0.062,0,0.092,0c8.381,0,14.771,4.225,22.454,7.977c7.409,2.859,12.184,8.546,15.032,13.416v0.12
					c31.333,25.417,49.194,76.327,49.194,134.955c0,78.018-33.249,142.315-77.188,151.141c0,0.003,0.419,0.045,0.419,0.045
					c-2.937,0.507-38.992,14.232-149.839,6.042c-2.851-45.258-4.345-304.182-4.345-304.182S2342.104,2901.749,2397.969,2907.445z"/>
				<g>
					
						<linearGradient id="SVGID_00000127004863725623468050000008524430524873930627_" gradientUnits="userSpaceOnUse" x1="4772.1069" y1="2807.385" x2="4552.9321" y2="3237.0664" gradientTransform="matrix(-1 0 0 1 6905.2178 0)">
						<stop  offset="0" style="stop-color:#444B8C"/>
						<stop  offset="0.9964" style="stop-color:#3E4177"/>
					</linearGradient>
					
						<ellipse style="fill:url(#SVGID_00000127004863725623468050000008524430524873930627_);" cx="2266.901" cy="3069.675" rx="88.39" ry="152.183"/>
					
						<linearGradient id="SVGID_00000049220165228758807670000006279130878951142058_" gradientUnits="userSpaceOnUse" x1="4569.8853" y1="3069.0808" x2="4689.1646" y2="3069.0808" gradientTransform="matrix(-1 0 0 1 6905.2178 0)">
						<stop  offset="0" style="stop-color:#444B8C"/>
						<stop  offset="0.9964" style="stop-color:#3E4177"/>
					</linearGradient>
					
						<ellipse style="fill:url(#SVGID_00000049220165228758807670000006279130878951142058_);" cx="2275.693" cy="3069.081" rx="59.64" ry="108.819"/>
				</g>
			</g>
			
				<linearGradient id="SVGID_00000166657775507241084160000007415233814852920762_" gradientUnits="userSpaceOnUse" x1="4696.8848" y1="3563.2681" x2="3035.9177" y2="5657.1895" gradientTransform="matrix(-1 0 0 1 6905.2178 0)">
				<stop  offset="0" style="stop-color:#FCB148"/>
				<stop  offset="0.0521" style="stop-color:#FDBA46"/>
				<stop  offset="0.1424" style="stop-color:#FFC244"/>
				<stop  offset="0.3183" style="stop-color:#FFC444"/>
				<stop  offset="0.4849" style="stop-color:#FDB946"/>
				<stop  offset="0.7754" style="stop-color:#F99C4D"/>
				<stop  offset="0.8658" style="stop-color:#F8924F"/>
				<stop  offset="1" style="stop-color:#F8924F"/>
			</linearGradient>
			<path style="fill:url(#SVGID_00000166657775507241084160000007415233814852920762_);" d="M786.484,2916.863
				c-3.09,14,0.865,28.627,10.591,39.161l17.996,19.489c4.933-57.497,34.677-101.72,70.667-101.72
				c39.396,0,71.394,53.09,71.394,118.56c0,15.527-1.783,30.322-5.087,43.908l7.869,3.253l425.133,78.742
				c-1.153-8.761-3.279-17.837-3.279-27.069c0-8.341-0.129-16.473-0.129-24.447c0-0.052,0-0.052,0-0.105
				c14.242-67.778,48.915-119.398,96.549-119.398c53.248,0,97.194,64.473,97.194,143.95c0,21.718-2.866,42.282-8.635,60.748
				l63.565,11.751c0.051,0.105,0.256,1.39,0.409,1.495c1.993,2.152,17.356,15.712,92.48,15.712h829.124
				c37.511,0,65.518-32.735,65.518-70.243v-3.095c0-14.374-6.921-27.489-19.775-33.941c0,0,22.951-65.785,4.75-144.474
				c-7.291-31.424-20.682-64.893-44.868-97.05c-14.058-18.676-31.427-36.88-53.251-53.981c0,0-94.352-78.27-267.469-98.623
				c0,0-143.494-104.31-274.797-173.451c-64.739-34.099-135.676-51.483-208.858-51.483h-479.955
				c-83.305,0-165.038,23.206-235.91,67.063L912.7,2598.842c0,0-29.852,17.789-60.277,60.386
				c-34.621,48.42-69.98,128.947-63.003,251.756L786.484,2916.863L786.484,2916.863z"/>
			
				<linearGradient id="SVGID_00000067941955324854079810000017076950839851677325_" gradientUnits="userSpaceOnUse" x1="4823.7852" y1="2892.3535" x2="4718.0117" y2="3483.8223" gradientTransform="matrix(-1 0 0 1 6905.2178 0)">
				<stop  offset="0" style="stop-color:#FCB148"/>
				<stop  offset="0.0521" style="stop-color:#FDBA46"/>
				<stop  offset="0.1424" style="stop-color:#FFC244"/>
				<stop  offset="0.3183" style="stop-color:#FFC444"/>
				<stop  offset="0.4849" style="stop-color:#FDB946"/>
				<stop  offset="0.7754" style="stop-color:#F99C4D"/>
				<stop  offset="0.8658" style="stop-color:#F8924F"/>
				<stop  offset="1" style="stop-color:#F8924F"/>
			</linearGradient>
			<path style="fill:url(#SVGID_00000067941955324854079810000017076950839851677325_);" d="M1630.506,3163.685
				c0.051,0.105,0.159,1.39,0.312,1.495c5.774,3.62,13.064,21.408,205.382,15.712h716.126c37.511,0,65.518-32.735,65.518-70.243
				v-3.095c0-0.839,1.158-1.627,1.106-2.466c-0.84-13.377-8.161-25.391-20.277-31.476l-833.806,7.869
				c0,0-78.641-14.322-105.609-0.21c-3.775,1.993-6.482,4.512-7.844,7.711C1640.083,3115.107,1625.26,3151.461,1630.506,3163.685z"
				/>
			<g style="opacity:0.8;">
				<path style="fill:#FFFFFF;" d="M2410.424,2930.817v10.859c0,8.445,3.463,16.472,9.55,22.347
					c6.086,5.823,14.268,8.918,22.715,8.551l89.181-3.777c21.404-0.892,41.701-9.81,56.865-24.971l14.688-14.689
					c-7.29-31.424-20.984-64.893-45.17-97.05c-0.312,0.052-0.63,0.052-0.942,0.105l-42.808,33.783
					c-22.664,17.89-49.519,29.693-78.059,34.256C2421.438,2902.646,2410.424,2915.603,2410.424,2930.817z"/>
			</g>
			<g style="opacity:0.4;">
				
					<linearGradient id="SVGID_00000170248242007001534580000006448244741582786696_" gradientUnits="userSpaceOnUse" x1="4513.7158" y1="2918.4612" x2="4894.5054" y2="2918.4612" gradientTransform="matrix(-1 0 0 1 6905.2178 0)">
					<stop  offset="0" style="stop-color:#FCB148"/>
					<stop  offset="0.0521" style="stop-color:#FDBA46"/>
					<stop  offset="0.1424" style="stop-color:#FFC244"/>
					<stop  offset="0.3183" style="stop-color:#FFC444"/>
					<stop  offset="0.4849" style="stop-color:#FDB946"/>
					<stop  offset="0.7754" style="stop-color:#F99C4D"/>
					<stop  offset="0.8658" style="stop-color:#F8924F"/>
					<stop  offset="1" style="stop-color:#F8924F"/>
				</linearGradient>
				<path style="fill:url(#SVGID_00000170248242007001534580000006448244741582786696_);" d="M2014.585,2918.376
					c5.865,7.052,15.653,12.795,21.719,12.806c111.401-0.013,222.696-0.027,333.864-0.04c6.055-0.008,14.62-5.758,19.021-12.788l0,0
					c4.37-6.99,2.361-12.609-4.462-12.613c-122.612,0-245.371,0-368.264,0C2009.668,2905.76,2008.707,2911.374,2014.585,2918.376
					L2014.585,2918.376z"/>
				
					<linearGradient id="SVGID_00000000939536329663909060000015115412391107645860_" gradientUnits="userSpaceOnUse" x1="4541.252" y1="2964.0374" x2="4857.7983" y2="2964.0374" gradientTransform="matrix(-1 0 0 1 6905.2178 0)">
					<stop  offset="0" style="stop-color:#FCB148"/>
					<stop  offset="0.0521" style="stop-color:#FDBA46"/>
					<stop  offset="0.1424" style="stop-color:#FFC244"/>
					<stop  offset="0.3183" style="stop-color:#FFC444"/>
					<stop  offset="0.4849" style="stop-color:#FDB946"/>
					<stop  offset="0.7754" style="stop-color:#F99C4D"/>
					<stop  offset="0.8658" style="stop-color:#F8924F"/>
					<stop  offset="1" style="stop-color:#F8924F"/>
				</linearGradient>
				<path style="fill:url(#SVGID_00000000939536329663909060000015115412391107645860_);" d="M2052.205,2963.979
					c6.201,7.384,15.187,13.446,20.152,13.437c90.523-0.03,180.976-0.061,271.346-0.091c4.938,0.001,12.71-6.045,17.34-13.43l0,0
					c4.617-7.341,3.639-13.248-2.055-13.237c-102.385,0.021-204.868,0.043-307.45,0.064
					C2045.821,2950.725,2046.068,2956.629,2052.205,2963.979C2052.2,2963.979,2052.2,2963.979,2052.205,2963.979z"/>
			</g>
			<path style="opacity:0.8;fill:#FFFFFF;" d="M1917.609,2974.88c20.321-0.524,36.558-15.259,36.558-33.257v-10.975
				c0-17.111-14.731-31.432-33.965-33.11l-36.26-3.162l-215.805-56.831l4.725,27.202c7.153,41.104,38.554,75.695,82.357,90.718
				l32.047,10.992c21.092,7.234,43.638,10.66,66.247,10.076L1917.609,2974.88z"/>
			<path style="opacity:0.4;fill:#FFFFFF;" d="M1659.41,3082.144l90.022,24.69h870.728c-0.84-14.243-8.766-26.264-20.882-32.349
				l-834.109,7.869C1765.17,3082.354,1686.378,3068.032,1659.41,3082.144z"/>
			<g>
				
					<linearGradient id="SVGID_00000067217909057301190480000011664225683859598761_" gradientUnits="userSpaceOnUse" x1="1336.2594" y1="2959.1233" x2="1075.4735" y2="2840.1685">
					<stop  offset="0" style="stop-color:#FCB148"/>
					<stop  offset="0.0521" style="stop-color:#FDBA46"/>
					<stop  offset="0.1424" style="stop-color:#FFC244"/>
					<stop  offset="0.3183" style="stop-color:#FFC444"/>
					<stop  offset="0.4849" style="stop-color:#FDB946"/>
					<stop  offset="0.7754" style="stop-color:#F99C4D"/>
					<stop  offset="0.8658" style="stop-color:#F8924F"/>
					<stop  offset="1" style="stop-color:#F8924F"/>
				</linearGradient>
				<path style="fill:url(#SVGID_00000067217909057301190480000011664225683859598761_);" d="M1092.37,3021.381
					c0.056,0,0.107,0,0.164,0c2.895-5.697,5.169-3.932,5.087-6.827c-0.056-1.755-5.179-177.009-0.015-248.048
					c4.478-61.54,14.785-72.704,15.697-73.539c2.265-1.268,3.294-4.228,2.305-6.706c-1.076-2.689-4.14-4.077-6.819-3.012
					c-3.791,1.517-16.558,11.859-21.645,81.824c-5.205,71.574-0.066,248.054-0.015,249.813
					C1087.216,3017.731,1089.547,3021.381,1092.37,3021.381z"/>
			</g>
			
				<linearGradient id="SVGID_00000026871952160873812690000017222567448304533416_" gradientUnits="userSpaceOnUse" x1="5608.0391" y1="3207.4653" x2="6107.6865" y2="2714.8547" gradientTransform="matrix(-1 0 0 1 6905.2178 0)">
				<stop  offset="0" style="stop-color:#FCB148"/>
				<stop  offset="0.0521" style="stop-color:#FDBA46"/>
				<stop  offset="0.1424" style="stop-color:#FFC244"/>
				<stop  offset="0.3183" style="stop-color:#FFC444"/>
				<stop  offset="0.4849" style="stop-color:#FDB946"/>
				<stop  offset="0.7754" style="stop-color:#F99C4D"/>
				<stop  offset="0.8658" style="stop-color:#F8924F"/>
				<stop  offset="1" style="stop-color:#F8924F"/>
			</linearGradient>
			<path style="opacity:0.5;fill:url(#SVGID_00000026871952160873812690000017222567448304533416_);" d="M786.473,2916.864
				l2.92-5.876c-6.977-122.81,28.355-203.333,62.977-251.755c21.823,1.26,51.042,12.119,48.838,61.64
				c-3.461,78.218,12.168,118.613,71.607,154.389c28.222,16.944,59.17,31.528,84.191,53.195
				c22.344,19.41,32.777,49.206,55.544,67.463c38.505,30.847,90.753,17.155,135.604,15.108
				c40.868-1.888,133.485-3.83,133.485,55.608c0,0.052,0,0.052,0,0.105c0,7.974,0.128,16.106,0.128,24.447
				c0,9.232,2.215,18.307,3.365,27.069l-425.174-78.741l-7.891-3.253c3.305-13.587,5.076-28.38,5.076-43.909
				c0-65.47-32.004-118.559-71.4-118.559c-35.988,0-65.735,44.223-70.668,101.72l-18-19.491
				C787.35,2945.488,783.389,2930.864,786.473,2916.864z"/>
			<g>
				<g>
					
						<linearGradient id="SVGID_00000031175688278521864820000001573116951501666197_" gradientUnits="userSpaceOnUse" x1="4704.6328" y1="2587.0005" x2="5543.9878" y2="2587.0005" gradientTransform="matrix(-1 0 0 1 6905.2178 0)">
						<stop  offset="0" style="stop-color:#444B8C"/>
						<stop  offset="0.9964" style="stop-color:#3E4177"/>
					</linearGradient>
					<path style="fill:url(#SVGID_00000031175688278521864820000001573116951501666197_);" d="M1361.23,2491.579
						c0,0,55.974,143.238,69.93,164.222c1.312,1.94,2.992,4.838,4.984,6.517c19.355,16.157,66.727,20.104,66.727,20.104h697.714
						c-155.647-119.633-288.528-190.843-288.528-190.843H1361.23z"/>
					<g>
						
							<linearGradient id="SVGID_00000140014347312594142550000015947295127854640522_" gradientUnits="userSpaceOnUse" x1="5694.9116" y1="2579.9143" x2="5972.8452" y2="2579.9143" gradientTransform="matrix(-1 0 0 1 6905.2178 0)">
							<stop  offset="0" style="stop-color:#444B8C"/>
							<stop  offset="0.9964" style="stop-color:#3E4177"/>
						</linearGradient>
						<path style="fill:url(#SVGID_00000140014347312594142550000015947295127854640522_);" d="M932.372,2611.967
							c0,0,74.442,30.427,174.429,59.07c3.253-15.423,8.499-34.781,16.946-56.079c15.528-39.397,41.861-85.509,86.559-126.165
							c-34.575,2.518-75.073,9.232-117.773,24.132C1040.125,2531.179,984.464,2561.762,932.372,2611.967z"/>
						
							<linearGradient id="SVGID_00000167373960177519118200000012740662514020631972_" gradientUnits="userSpaceOnUse" x1="5496.7734" y1="2604.2229" x2="5772.8169" y2="2604.2229" gradientTransform="matrix(-1 0 0 1 6905.2178 0)">
							<stop  offset="0" style="stop-color:#444B8C"/>
							<stop  offset="0.9964" style="stop-color:#3E4177"/>
						</linearGradient>
						<path style="fill:url(#SVGID_00000167373960177519118200000012740662514020631972_);" d="M1132.401,2678.172
							c49.837,13.481,104.607,25.967,158.952,33.94c30.953,4.512,61.748,7.555,91.384,8.446c8.658,0.262,17.259,0.367,25.708,0.262
							c0,0,0-0.052-0.052-0.104c-1.311-5.561-54.35-222.954-103.556-229.406c-11.332-1.469-29.222-3.358-51.778-3.725
							c-53.141,39.292-83.884,88.132-101.507,129.89C1141.633,2640.925,1135.813,2662.118,1132.401,2678.172z"/>
					</g>
				</g>
				
					<linearGradient id="SVGID_00000154387811225709924020000003116778038505712831_" gradientUnits="userSpaceOnUse" x1="4887.9902" y1="2868.3987" x2="5287.4692" y2="2474.5454" gradientTransform="matrix(-1 0 0 1 6905.2178 0)">
					<stop  offset="0" style="stop-color:#444B8C"/>
					<stop  offset="0.9964" style="stop-color:#3E4177"/>
				</linearGradient>
				<path style="opacity:0.3;fill:url(#SVGID_00000154387811225709924020000003116778038505712831_);" d="M1436.144,2662.251
					c19.355,16.157,66.727,20.171,66.727,20.171h697.714c-155.647-119.633-288.528-190.843-288.528-190.843h-9.862
					c-15.426,5.697-30.533,19.421-43.909,38.463C1804.305,2607,1506.074,2548.675,1436.144,2662.251z"/>
				
					<linearGradient id="SVGID_00000016782621013218370720000015411257991096525723_" gradientUnits="userSpaceOnUse" x1="5503.0303" y1="2727.1665" x2="5516.1973" y2="2714.1848" gradientTransform="matrix(-1 0 0 1 6905.2178 0)">
					<stop  offset="0" style="stop-color:#444B8C"/>
					<stop  offset="0.9964" style="stop-color:#3E4177"/>
				</linearGradient>
				<path style="opacity:0.3;fill:url(#SVGID_00000016782621013218370720000015411257991096525723_);" d="M1382.737,2720.558
					c8.658,0.262,17.259,0.367,25.708,0.262c0,0,0-0.052-0.052-0.104C1401.415,2720.663,1392.757,2720.611,1382.737,2720.558z"/>
				
					<linearGradient id="SVGID_00000009554276155973046830000013150964766823219387_" gradientUnits="userSpaceOnUse" x1="5640.3335" y1="2738.9583" x2="5758.5391" y2="2622.4172" gradientTransform="matrix(-1 0 0 1 6905.2178 0)">
					<stop  offset="0" style="stop-color:#444B8C"/>
					<stop  offset="0.9964" style="stop-color:#3E4177"/>
				</linearGradient>
				<path style="opacity:0.3;fill:url(#SVGID_00000009554276155973046830000013150964766823219387_);" d="M1151.551,2617.476
					c-9.918,23.449-15.738,44.643-19.15,60.696c49.837,13.481,104.607,25.967,158.952,33.94
					c-7.659-7.605-14.74-17.206-20.928-29.219C1243.406,2630.695,1195.721,2621.724,1151.551,2617.476z"/>
				
					<linearGradient id="SVGID_00000096768310844791309870000007805060589108172673_" gradientUnits="userSpaceOnUse" x1="5790.6313" y1="2663.1401" x2="5908.6147" y2="2546.8186" gradientTransform="matrix(-1 0 0 1 6905.2178 0)">
					<stop  offset="0" style="stop-color:#444B8C"/>
					<stop  offset="0.9964" style="stop-color:#3E4177"/>
				</linearGradient>
				<path style="opacity:0.3;fill:url(#SVGID_00000096768310844791309870000007805060589108172673_);" d="M932.372,2611.967
					c0,0,74.442,30.427,174.429,59.07c3.253-15.423,8.499-34.781,16.946-56.079c-26.65-2.675-49.682-6.82-62.849-22.663
					c-23.085-27.908,5.558-59.175,31.635-79.371C1040.125,2531.179,984.464,2561.762,932.372,2611.967z"/>
			</g>
			<g>
				
					<linearGradient id="SVGID_00000006677802801712709900000013021112179064087220_" gradientUnits="userSpaceOnUse" x1="5549.0776" y1="2728.0884" x2="5714.1265" y2="2565.3638" gradientTransform="matrix(-1 0 0 1 6905.2178 0)">
					<stop  offset="0" style="stop-color:#FCB148"/>
					<stop  offset="0.0521" style="stop-color:#FDBA46"/>
					<stop  offset="0.1424" style="stop-color:#FFC244"/>
					<stop  offset="0.3183" style="stop-color:#FFC444"/>
					<stop  offset="0.4849" style="stop-color:#FDB946"/>
					<stop  offset="0.7754" style="stop-color:#F99C4D"/>
					<stop  offset="0.8658" style="stop-color:#F8924F"/>
					<stop  offset="1" style="stop-color:#F8924F"/>
				</linearGradient>
				<path style="fill:url(#SVGID_00000006677802801712709900000013021112179064087220_);" d="M1410.36,2731.036
					c0,0-22.084-87.174-53.467-90.661c-31.383-3.487-120.881-29.058-129.017,13.948c-8.136,43.006,8.136,64.462,53.467,67.101
					c45.33,2.639,75.551,0,75.551,0l20.922,22.398C1377.815,2743.822,1411.522,2767.068,1410.36,2731.036z"/>
				
					<linearGradient id="SVGID_00000128473200841117624820000007827826139378160056_" gradientUnits="userSpaceOnUse" x1="1715.5952" y1="2844.4124" x2="1380.4609" y2="2704.8682">
					<stop  offset="0" style="stop-color:#FCB148"/>
					<stop  offset="0.0521" style="stop-color:#FDBA46"/>
					<stop  offset="0.1424" style="stop-color:#FFC244"/>
					<stop  offset="0.3183" style="stop-color:#FFC444"/>
					<stop  offset="0.4849" style="stop-color:#FDB946"/>
					<stop  offset="0.7754" style="stop-color:#F99C4D"/>
					<stop  offset="0.8658" style="stop-color:#F8924F"/>
					<stop  offset="1" style="stop-color:#F8924F"/>
				</linearGradient>
				<path style="fill:url(#SVGID_00000128473200841117624820000007827826139378160056_);" d="M1420.82,2731.036
					c0,0-22.084-87.174-53.466-90.661s-120.881-29.058-129.018,13.948c-8.136,43.006,8.136,64.462,53.467,67.101
					c45.331,2.639,75.551,0,75.551,0l20.921,22.398C1388.275,2743.822,1421.983,2767.068,1420.82,2731.036z"/>
			</g>
		</g>
	</g>
</g>
</svg>
